{"title":"I.Melt.with.You.2011.HDRip.XviD.SeT- CM8","uid":6879487,"size":1440194517,"categoryP":"video","categoryS":"movies","magnet":"?xt=urn:btih:92c2f855c7251c46119a558aeb86f78ec94cb1c6&amp;dn=I.Melt.with.You.2011.HDRip.XviD.SeT-+CM8&amp;tr=udp%3A%2F%2Ftracker.openbittorrent.com%3A80&amp;tr=udp%3A%2F%2Fopen.demonii.com%3A1337&amp;tr=udp%3A%2F%2Ftracker.coppersurfer.tk%3A6969&amp;tr=udp%3A%2F%2Fexodus.desync.com%3A6969","seeders":1,"leechers":0,"uploader":"LegendET","files":3,"time":1323598204,"description":"\n\n\nI Melt with You 2011 HDRip XviD SeT-CM8\n\n\nWhen four 40-something college friends meet up for their annual reunion, things start to spiral out of control, \nand a pact they made as young men is revisited. \n\n &lt;a href=&quot;\nhttp://www.imdb.com/title/tt1691920/&quot; rel=&quot;nofollow&quot; target=&quot;_NEW&quot;&gt;\nhttp://www.imdb.com/title/tt1691920/&lt;/a&gt;\n\nCM8 Doing It Right The First Time \n\nsource - I.Melt.with.You.2011.HDRip.XviD-OCW  thank you\n\nGeneral\nComplete name                    : I.Melt.with.You.2011.HDRip.XviD-SeT.CM8.avi\nFormat                           : AVI\nFormat/Info                      : Audio Video Interleave\nFile size                        : 1.34 GiB\nDuration                         : 2h 2mn\nOverall bit rate                 : 1 567 Kbps\n\nVideo\nID                               : 0\nFormat                           : MPEG-4 Visual\nFormat profile                   : Advanced Simple@L5\nFormat settings, BVOP            : 2\nFormat settings, QPel            : No\nFormat settings, GMC             : No warppoints\nFormat settings, Matrix          : Default (H.263)\nCodec ID                         : XVID\nCodec ID/Hint                    : XviD\nDuration                         : 2h 2mn\nBit rate                         : 1 365 Kbps\nWidth                            : 720 pixels\nHeight                           : 304 pixels\nDisplay aspect ratio             : 2.35:1\nFrame rate                       : 25.000 fps\nColor space                      : YUV\nChroma subsampling               : 4:2:0\nBit depth                        : 8 bits\nScan type                        : Progressive\nCompression mode                 : Lossy\nBits/(Pixel*Frame)               : 0.249\nStream size                      : 1.17 GiB (87%)\nWriting library                  : XviD 1.2.1 (UTC 2008-12-04)\n\nAudio\nID                               : 1\nFormat                           : AC-3\nFormat/Info                      : Audio Coding 3\nMode extension                   : CM (complete main)\nCodec ID                         : 2000\nDuration                         : 2h 2mn\nBit rate mode                    : Constant\nBit rate                         : 192 Kbps\nChannel(s)                       : 2 channels\nChannel positions                : Front: L R\nSampling rate                    : 44.1 KHz\nBit depth                        : 16 bits\nCompression mode                 : Lossy\nDelay relative to video          : 34ms\nStream size                      : 168 MiB (12%)\nAlignment                        : Split accross interleaves\nInterleave, duration             : 35 ms (0.87 video frame)\n\n","torrent":{"xt":"urn:btih:92c2f855c7251c46119a558aeb86f78ec94cb1c6","amp;dn":"I.Melt.with.You.2011.HDRip.XviD.SeT-+CM8","amp;tr":["udp%3A%2F%2Ftracker.openbittorrent.com%3A80","udp%3A%2F%2Fopen.demonii.com%3A1337","udp%3A%2F%2Ftracker.coppersurfer.tk%3A6969","udp%3A%2F%2Fexodus.desync.com%3A6969"],"infoHash":"92c2f855c7251c46119a558aeb86f78ec94cb1c6","infoHashBuffer":{"type":"Buffer","data":[146,194,248,85,199,37,28,70,17,154,85,138,235,134,247,142,201,76,177,198]},"announce":[],"urlList":[]}}